<svg xmlns="http://www.w3.org/2000/svg" xmlns:xlink="http://www.w3.org/1999/xlink" width="1920" zoomAndPan="magnify" viewBox="0 0 1440 809.999993" height="1080" preserveAspectRatio="xMidYMid meet" version="1.0"><defs><g/><clipPath id="5ee6eab4d0"><path d="M 459.285156 144.285156 L 980.535156 144.285156 L 980.535156 665.535156 L 459.285156 665.535156 Z M 459.285156 144.285156 " clip-rule="nonzero"/></clipPath><clipPath id="4a99960d2f"><path d="M 882.445312 303.945312 L 939.445312 303.945312 L 939.445312 360.945312 L 882.445312 360.945312 Z M 882.445312 303.945312 " clip-rule="nonzero"/></clipPath><clipPath id="7c97298bf1"><path d="M 502.375 303.945312 L 559.375 303.945312 L 559.375 360.945312 L 502.375 360.945312 Z M 502.375 303.945312 " clip-rule="nonzero"/></clipPath></defs><rect x="-144" width="1728" fill="#ffffff" y="-80.999999" height="971.999992" fill-opacity="1"/><rect x="-144" width="1728" fill="#ffffff" y="-80.999999" height="971.999992" fill-opacity="1"/><path fill="#677d61" d="M 700.128906 458.183594 C 700.28125 459.050781 700.570312 460.359375 701.105469 461.613281 C 701.832031 463.328125 706.300781 469.492188 707.730469 472.339844 C 709.152344 475.191406 715.4375 479.546875 715.519531 480.136719 C 715.605469 480.722656 716.527344 485.25 716.527344 485.25 C 716.527344 485.25 719.710938 483.238281 720.882812 484.492188 C 722.0625 485.75 724.660156 492.121094 724.824219 495.054688 C 724.992188 497.988281 721.640625 501.929688 721.640625 501.929688 C 721.640625 501.929688 711.582031 493.378906 710.910156 491.199219 C 710.242188 489.019531 702.78125 482.902344 702.53125 481.226562 C 702.28125 479.546875 698.929688 472.257812 697 469.828125 C 696.792969 469.566406 696.550781 469.25 696.285156 468.898438 C 697.425781 474.535156 698.757812 479.855469 699.101562 480.898438 C 699.570312 482.300781 696.53125 487.679688 696.140625 488.847656 C 695.75 490.015625 696.140625 492.433594 696.683594 493.367188 C 697.230469 494.304688 699.457031 498.78125 699.765625 499.328125 C 700.078125 499.875 684.0625 499.996094 684.0625 499.996094 C 684.0625 499.996094 685.464844 495.941406 685.308594 494.304688 C 685.152344 492.667969 687.257812 490.484375 687.722656 489.550781 C 688.191406 488.613281 688.972656 484.875 688.8125 483.394531 C 688.660156 481.914062 689.359375 480.429688 689.28125 478.246094 C 689.199219 476.0625 688.34375 468.582031 686.710938 464.058594 C 686.191406 462.628906 685.921875 461.722656 685.785156 460.957031 C 689.664062 460.140625 694.570312 459.277344 696.617188 458.449219 C 697.480469 458.101562 698.757812 458.039062 700.128906 458.183594 M 765.199219 496.207031 C 764.667969 496.953125 764.015625 497.640625 763.679688 497.8125 C 763.058594 498.121094 763.136719 499.914062 763.136719 499.914062 L 751.765625 499.78125 C 751.691406 499.59375 751.511719 499.101562 751.304688 498.265625 L 751.277344 498.164062 C 752.339844 496.886719 753.746094 495.230469 754.25 494.769531 C 755.105469 493.992188 756.746094 491.882812 757.527344 490.5625 C 757.703125 490.261719 758.121094 489.34375 758.6875 488.058594 C 760.066406 490.679688 761.792969 493.25 764.007812 495.105469 C 764.382812 495.492188 764.78125 495.863281 765.199219 496.207031 Z M 642.761719 352.863281 C 644.789062 351.617188 649.855469 350.210938 651.492188 348.730469 C 653.125 347.25 657.808594 342.492188 657.726562 334.699219 C 657.726562 334.699219 659.246094 338.246094 657.414062 344.050781 C 658.984375 353.4375 665.238281 361.945312 663.847656 370.292969 C 663.847656 370.292969 664.605469 368.738281 665.425781 368.542969 C 666.242188 368.34375 663.253906 379.804688 664.503906 389.625 C 665.75 399.445312 669.753906 407.863281 675.953125 415.851562 C 675.953125 415.851562 673.613281 413.746094 672.289062 412.617188 C 672.289062 412.617188 671.40625 416.792969 675.390625 425.546875 C 676.960938 426.027344 678.363281 426.511719 678.949219 426.824219 C 680.359375 427.570312 682.105469 428.179688 684.230469 428.402344 C 685.664062 428.550781 689.300781 428.308594 693.25 428.246094 C 692.996094 426.105469 692.835938 424.371094 692.867188 424.078125 C 692.945312 423.371094 693.878906 422.050781 694.816406 422.4375 C 695.75 422.828125 697.230469 422.363281 698.789062 423.375 C 699.589844 423.894531 700.425781 424.269531 701.054688 424.511719 C 700.746094 425.621094 700.355469 426.9375 699.894531 428.402344 C 705.023438 428.734375 708.410156 428.984375 711.046875 429.507812 C 711.636719 429.625 712.164062 429.71875 712.640625 429.792969 C 713.890625 429.9375 714.835938 429.925781 715.675781 429.875 L 715.683594 429.875 C 716.195312 428.949219 716.554688 428.1875 716.695312 427.671875 C 716.886719 426.96875 717.339844 426.222656 717.921875 425.476562 L 720.03125 425.558594 C 720.03125 425.558594 725.097656 424.390625 727.511719 423.53125 C 729.929688 422.675781 737.566406 422.675781 743.335938 419.167969 C 749.101562 415.660156 756.894531 409.890625 758.84375 407.320312 C 758.84375 407.320312 756.195312 411.644531 753.894531 413.632812 C 751.597656 415.617188 746.882812 419.050781 746.882812 419.050781 C 746.882812 419.050781 749.960938 421.503906 752.066406 424.15625 C 754.167969 426.804688 755.570312 433.664062 758.070312 437.480469 C 760.5625 441.304688 763.367188 442.472656 764.148438 444.652344 L 764.613281 427.035156 C 764.613281 427.035156 765.707031 442.9375 765.941406 447.613281 C 766.171875 452.289062 766.40625 454.316406 766.25 455.484375 C 766.09375 456.65625 767.027344 459.386719 767.027344 462.578125 C 767.027344 465.777344 767.730469 467.175781 765.78125 471.542969 C 764.808594 473.71875 762.945312 478.128906 761.222656 482.164062 C 762.449219 485.402344 764.296875 488.59375 766.371094 490.957031 C 766.625 489.242188 767.019531 487.242188 767.574219 485.730469 C 768.667969 482.769531 771.707031 475.597656 772.410156 473.570312 C 773.109375 471.542969 775.527344 463.359375 775.527344 463.359375 C 775.527344 463.359375 774.277344 470.609375 774.277344 471.078125 C 774.277344 471.542969 774.902344 475.519531 775.136719 479.261719 C 775.371094 483.003906 774.746094 484.636719 775.445312 486.042969 C 776.152344 487.445312 776.933594 489.707031 776.386719 491.109375 C 776.214844 491.542969 775.765625 492.386719 775.226562 493.335938 C 778.914062 492.824219 781.90625 491.128906 781.765625 490.742188 C 781.507812 490.03125 781.507812 486.414062 782.929688 481.441406 C 783.128906 480.730469 783.386719 479.988281 783.667969 479.222656 C 782.496094 474.859375 780.371094 467.328125 779.65625 463.753906 C 778.71875 459.074219 777.632812 460.554688 778.253906 457.050781 C 778.875 453.535156 778.875 448.160156 778.644531 444.8125 C 778.410156 441.457031 778.644531 425.246094 780.828125 416.984375 C 783.007812 408.71875 787.53125 393.445312 788.621094 390.015625 C 788.980469 388.894531 789.335938 386.9375 789.550781 384.671875 C 793.722656 394.878906 784.726562 411.328125 782.820312 421.265625 C 780.417969 433.789062 786.824219 444.824219 786.824219 444.824219 C 785.96875 441.996094 786.566406 438.648438 786.566406 438.648438 C 787.523438 442.566406 792.804688 453.214844 800.042969 456.761719 C 794.527344 446.546875 793.722656 428.8125 795.203125 419.429688 C 796.746094 409.65625 801.027344 393.808594 799.054688 385.148438 C 797.078125 376.480469 799.738281 382.832031 799.738281 382.832031 C 798.101562 374.378906 791.082031 371.675781 787.480469 370.835938 C 784.316406 366.859375 776.355469 360.585938 772.734375 359.117188 C 758.671875 355.058594 718.832031 363.167969 712.589844 355.972656 L 712.566406 355.949219 C 711.1875 354.484375 710.359375 353.503906 711.503906 353.058594 C 714.113281 352.046875 715.28125 355.671875 715.28125 355.671875 C 714.230469 349.203125 708.3125 346.007812 708.3125 346.007812 C 712.792969 348.070312 714.542969 351.421875 714.542969 351.421875 C 714.542969 346.121094 710.734375 342.429688 706.914062 341.027344 C 703.097656 339.625 700.792969 335.339844 703.949219 336.277344 C 707.101562 337.210938 707.726562 338.144531 707.726562 338.144531 C 705.15625 333.898438 697.523438 330.023438 697.523438 330.023438 C 702.042969 330.609375 703.757812 332.023438 703.757812 332.023438 C 702.433594 329.175781 698.820312 326.695312 695.898438 325.214844 C 694.761719 324.636719 693.398438 323.839844 692.300781 323.113281 C 690.578125 321.976562 689.511719 321.023438 691.015625 321.40625 C 691.441406 321.515625 691.875 321.640625 692.300781 321.773438 C 694.324219 322.414062 696.15625 323.234375 696.15625 323.234375 C 695.496094 321.675781 693.957031 320.570312 692.300781 319.726562 C 690.429688 318.773438 688.40625 318.160156 687.3125 317.625 C 685.246094 316.609375 681.152344 314.464844 683.765625 314.464844 C 686.375 314.464844 688.050781 316.023438 688.050781 316.023438 C 685.398438 312.515625 681.777344 312.46875 679.710938 312.195312 C 677.644531 311.925781 674.992188 310.960938 674.992188 310.960938 C 677.992188 310.84375 677.835938 308.46875 677.835938 308.46875 C 677.835938 308.46875 677.210938 309.828125 674.136719 309.554688 C 671.054688 309.28125 665.675781 308.074219 668.132812 307.449219 C 670.589844 306.828125 674.5625 308.113281 674.5625 308.113281 C 668.566406 304.140625 660.144531 305.503906 660.144531 305.503906 C 663.261719 303.125 667.003906 304.175781 667.003906 304.175781 C 660.691406 301.917969 652.3125 307.03125 651.144531 306.644531 C 649.976562 306.25 646.15625 305.941406 644.988281 305.628906 C 643.816406 305.316406 643.15625 304.851562 641.671875 303.679688 C 640.191406 302.511719 637.542969 300.40625 635.789062 299.042969 C 634.035156 297.679688 632.984375 297.25 632.710938 297.40625 C 632.4375 297.5625 634.65625 301.300781 635.242188 302.007812 C 635.828125 302.707031 637.152344 305.277344 637.152344 305.277344 C 637.152344 305.277344 635.476562 303.097656 635.046875 302.628906 C 634.617188 302.160156 632.554688 301.382812 631.894531 300.953125 C 631.230469 300.527344 630.414062 299.707031 629.789062 299.003906 C 629.164062 298.300781 628.773438 298.652344 628.773438 298.652344 C 628.226562 303.875 634.382812 311.511719 634.382812 311.511719 C 634.382812 311.511719 630.402344 316.421875 629.390625 318.214844 C 628.378906 320.007812 625.574219 322.347656 625.105469 324.214844 C 624.640625 326.085938 622.921875 332.085938 621.519531 334.894531 C 620.117188 337.699219 615.675781 344.171875 614.117188 346.664062 C 612.554688 349.15625 610.375 353.210938 610.375 355.160156 C 610.375 357.105469 610.097656 358.511719 610.878906 360.382812 C 611.660156 362.25 611.933594 362.054688 612.207031 363.226562 C 612.480469 364.394531 614.429688 367.316406 614.933594 367.667969 C 615.441406 368.019531 617.976562 367.902344 618.714844 368.332031 C 619.457031 368.757812 619.882812 369.5 621.519531 369.070312 C 623.15625 368.640625 626.859375 367.238281 627.09375 365.953125 C 627.328125 364.667969 628.496094 359.640625 629.15625 358.746094 L 628.769531 362.328125 C 628.769531 362.328125 632.625 360.652344 634.457031 358.941406 C 636.292969 357.226562 640.738281 354.109375 642.761719 352.863281 Z M 642.761719 352.863281 " fill-opacity="1" fill-rule="evenodd"/><path fill="#1a1a1a" d="M 890.644531 234.347656 C 846.972656 190.679688 786.636719 163.667969 719.996094 163.667969 C 653.355469 163.667969 593.019531 190.679688 549.351562 234.347656 C 505.679688 278.019531 478.667969 338.351562 478.667969 404.996094 C 478.667969 471.636719 505.679688 531.972656 549.351562 575.640625 C 593.019531 619.3125 653.355469 646.324219 719.996094 646.324219 C 786.636719 646.324219 846.972656 619.3125 890.644531 575.640625 C 934.316406 531.972656 961.328125 471.636719 961.328125 404.996094 C 961.328125 338.355469 934.316406 278.019531 890.644531 234.347656 M 719.996094 151.335938 C 790.042969 151.335938 853.460938 179.726562 899.363281 225.628906 C 945.265625 271.535156 973.660156 334.949219 973.660156 404.996094 C 973.660156 475.042969 945.265625 538.460938 899.363281 584.363281 C 853.460938 630.265625 790.042969 658.65625 719.996094 658.65625 C 649.949219 658.65625 586.535156 630.265625 540.628906 584.363281 C 494.726562 538.460938 466.335938 475.042969 466.335938 404.996094 C 466.335938 334.949219 494.726562 271.53125 540.628906 225.628906 C 586.535156 179.726562 649.949219 151.335938 719.996094 151.335938 Z M 719.996094 151.335938 " fill-opacity="1" fill-rule="nonzero"/><g clip-path="url(#5ee6eab4d0)"><path fill="#677d61" d="M 902.167969 222.824219 C 855.546875 176.207031 791.136719 147.371094 719.996094 147.371094 C 648.855469 147.371094 584.449219 176.207031 537.828125 222.824219 C 491.207031 269.449219 462.371094 333.855469 462.371094 404.996094 C 462.371094 476.136719 491.207031 540.542969 537.824219 587.167969 C 584.449219 633.785156 648.855469 662.621094 719.996094 662.621094 C 791.136719 662.621094 855.542969 633.785156 902.167969 587.167969 C 948.785156 540.542969 977.621094 476.136719 977.621094 404.996094 C 977.625 333.855469 948.789062 269.449219 902.167969 222.824219 M 719.996094 144.285156 C 791.992188 144.285156 857.167969 173.464844 904.347656 220.644531 C 951.527344 267.824219 980.710938 333.003906 980.710938 404.996094 C 980.710938 476.988281 951.527344 542.164062 904.347656 589.347656 C 857.167969 636.523438 791.992188 665.707031 719.996094 665.707031 C 648.003906 665.707031 582.828125 636.527344 535.644531 589.347656 C 488.46875 542.164062 459.285156 476.988281 459.285156 404.996094 C 459.285156 333.003906 488.46875 267.824219 535.644531 220.644531 C 582.828125 173.464844 648.003906 144.285156 719.996094 144.285156 Z M 719.996094 144.285156 " fill-opacity="1" fill-rule="nonzero"/></g><path fill="#1a1a1a" d="M 719.996094 493.203125 C 768.308594 493.203125 813.042969 497.082031 849.644531 503.667969 C 849.046875 505.414062 848.441406 507.148438 847.824219 508.863281 C 808.03125 506.5625 764.960938 505.296875 719.996094 505.296875 C 675.03125 505.296875 631.964844 506.5625 592.167969 508.863281 C 591.554688 507.148438 590.945312 505.414062 590.347656 503.667969 C 626.949219 497.082031 671.683594 493.203125 719.996094 493.203125 " fill-opacity="1" fill-rule="evenodd"/><path fill="#1a1a1a" d="M 831.742188 293.25 C 803.144531 264.652344 763.636719 246.960938 719.996094 246.960938 C 676.359375 246.960938 636.851562 264.652344 608.25 293.25 C 579.652344 321.84375 561.960938 361.355469 561.960938 404.996094 C 561.960938 448.632812 579.652344 488.144531 608.25 516.738281 C 636.847656 545.335938 676.359375 563.027344 719.996094 563.027344 C 763.636719 563.027344 803.148438 545.335938 831.742188 516.738281 C 860.339844 488.140625 878.03125 448.632812 878.03125 404.996094 C 878.03125 361.355469 860.339844 321.847656 831.742188 293.25 M 719.996094 239.253906 C 765.765625 239.253906 807.199219 257.804688 837.195312 287.796875 C 867.1875 317.792969 885.738281 359.226562 885.738281 404.996094 C 885.738281 450.765625 867.1875 492.199219 837.195312 522.195312 C 807.199219 552.1875 765.765625 570.738281 719.996094 570.738281 C 674.230469 570.738281 632.792969 552.1875 602.796875 522.195312 C 572.804688 492.199219 554.257812 450.765625 554.257812 404.996094 C 554.257812 359.226562 572.808594 317.792969 602.796875 287.796875 C 632.792969 257.804688 674.230469 239.253906 719.996094 239.253906 Z M 719.996094 239.253906 " fill-opacity="1" fill-rule="nonzero"/><path fill="#1a1a1a" d="M 719.996094 250.058594 C 804.953125 250.058594 873.824219 318.929688 873.824219 403.886719 C 873.824219 404.660156 873.808594 405.429688 873.796875 406.199219 C 872.558594 322.3125 804.183594 254.683594 719.996094 254.683594 C 635.8125 254.683594 567.4375 322.3125 566.199219 406.199219 C 566.1875 405.429688 566.171875 404.660156 566.171875 403.886719 C 566.171875 318.925781 635.042969 250.058594 719.996094 250.058594 " fill-opacity="1" fill-rule="evenodd"/><path fill="#1a1a1a" d="M 665.238281 423.507812 C 665.683594 423.703125 666.734375 424.007812 667.09375 424.722656 C 667.214844 424.96875 667.316406 425.167969 667.472656 425.328125 C 667.871094 425.570312 668.109375 425.699219 668.117188 425.707031 C 668.445312 425.820312 668.894531 425.921875 669.550781 426.023438 C 671.484375 426.328125 677.539062 428.070312 678.949219 428.8125 C 680.359375 429.5625 682.101562 430.167969 684.230469 430.390625 C 686.359375 430.613281 693.355469 429.976562 698.992188 430.335938 C 704.632812 430.695312 708.253906 430.945312 711.046875 431.496094 C 711.632812 431.609375 712.160156 431.703125 712.640625 431.777344 C 713.890625 431.925781 714.835938 431.914062 715.675781 431.859375 C 717.28125 431.757812 726.203125 438.601562 729.378906 439.152344 C 729.378906 439.152344 726.578125 438.902344 725.71875 438.800781 C 725.71875 438.800781 732.511719 444.28125 736.433594 438.496094 C 736.433594 438.496094 736.28125 440.761719 735.386719 441.515625 C 735.386719 441.515625 739.15625 441.113281 740.054688 436.742188 C 740.949219 432.363281 738.558594 428.945312 738.558594 428.945312 C 738.558594 428.945312 740.390625 429.953125 740.761719 431.257812 C 740.761719 431.257812 741.175781 426.226562 739.867188 423.210938 C 739.867188 423.210938 747.820312 428.992188 745.542969 437.089844 C 745.542969 437.089844 746.921875 435.027344 747.59375 432.917969 C 747.59375 432.917969 748.640625 443.425781 741.285156 444.433594 C 741.285156 444.433594 743.675781 445.339844 745.242188 445.1875 C 745.242188 445.1875 741.546875 449.109375 733.445312 445.941406 C 733.445312 445.941406 735.199219 447.402344 736.320312 447.902344 C 736.320312 447.902344 733.445312 448.046875 730.007812 446.878906 C 731.125 448.554688 731.886719 450.078125 731.726562 450.933594 C 731.230469 453.644531 732.445312 459.503906 734.105469 462.210938 C 735.761719 464.921875 736.425781 470.894531 739.414062 473.933594 C 742.398438 476.976562 746.933594 480.070312 747.101562 481.453125 C 747.261719 482.839844 750.027344 496.824219 750.136719 498.265625 C 750.25 499.703125 751.023438 499.148438 751.300781 500.253906 C 751.578125 501.359375 751.800781 501.855469 751.800781 501.855469 C 751.800781 501.855469 742.839844 502.1875 743.667969 500.53125 C 744.5 498.871094 745.164062 498.542969 745.109375 497.046875 C 745.054688 495.550781 741.789062 486.816406 739.632812 484.164062 C 737.476562 481.511719 731.117188 476.808594 728.742188 474.875 C 728.742188 474.875 733.054688 479.683594 735.046875 481.894531 C 735.046875 481.894531 735.046875 487.203125 735.597656 489.472656 C 736.148438 491.738281 735.875 494.449219 736.097656 495.609375 C 736.320312 496.769531 736.871094 499.757812 736.648438 500.089844 C 736.425781 500.417969 730.011719 500.035156 730.011719 500.035156 C 730.011719 500.035156 731.117188 498.539062 731.453125 497.820312 C 731.78125 497.101562 732.667969 495.445312 732.003906 493.34375 C 731.339844 491.242188 729.238281 484.496094 727.910156 482.558594 C 726.585938 480.625 721.996094 478.191406 718.734375 474.875 C 715.46875 471.558594 708.726562 461.050781 707.125 459.167969 C 705.515625 457.289062 699.214844 455.742188 696.617188 456.792969 C 694.019531 457.84375 686.832031 458.953125 682.960938 459.945312 C 679.085938 460.9375 673.117188 461.769531 673.117188 461.769531 C 673.117188 461.769531 671.183594 457.070312 671.898438 453.199219 C 671.898438 453.199219 670.960938 456.570312 671.125 460.664062 C 671.292969 464.753906 670.464844 465.695312 670.242188 467.910156 C 670.019531 470.117188 671.070312 484.660156 671.402344 487.203125 C 671.734375 489.746094 671.734375 493.066406 671.457031 494.113281 C 671.183594 495.164062 669.910156 495.886719 669.796875 496.824219 C 669.6875 497.765625 670.019531 500.835938 670.019531 501.582031 C 670.019531 502.328125 662.003906 501.636719 662.003906 501.636719 C 662.003906 501.636719 663.109375 499.144531 664.046875 497.488281 C 664.984375 495.828125 665.484375 494.777344 665.042969 488.917969 C 664.601562 483.058594 662.332031 468.125 662.332031 468.125 L 664.433594 489.746094 C 664.433594 489.746094 664.488281 493.894531 664.324219 494.445312 C 664.15625 495 661.476562 500.585938 661.476562 500.585938 L 656.003906 499.34375 C 656.003906 499.34375 657.855469 495.800781 658.132812 495.304688 C 658.410156 494.804688 660.5625 489.527344 660.394531 488.035156 C 660.234375 486.539062 658.378906 478.546875 657.660156 476.835938 C 656.941406 475.121094 654.617188 469.648438 654.457031 468.324219 C 654.289062 466.992188 652.628906 460.46875 651.414062 458.53125 C 650.195312 456.597656 647.375 449.355469 647.820312 446.3125 C 647.992188 445.105469 648.128906 443.296875 648.199219 441.472656 C 647.722656 441.621094 647.386719 441.703125 647.328125 441.609375 C 645.015625 437.90625 644.035156 434.40625 640.214844 428.898438 C 642.019531 428.128906 643.296875 428.015625 643.296875 428.015625 C 642.472656 427.683594 639.75 427.8125 639.007812 428.03125 C 638.261719 428.246094 637.835938 428.414062 637.136719 428.425781 C 636.4375 428.4375 635.894531 427.664062 635.65625 427.351562 C 635.414062 427.046875 634.488281 426.316406 633.902344 426.03125 C 633.316406 425.753906 633.199219 425.960938 632.597656 425.828125 C 632 425.691406 632.109375 425.480469 631.949219 425.234375 C 631.792969 424.984375 631.792969 424.367188 631.820312 424.089844 C 631.851562 423.8125 631.722656 423.625 631.566406 423.269531 C 631.40625 422.90625 631.140625 422.023438 631.140625 422.023438 C 630.738281 421.503906 630.773438 420.820312 631.277344 419.988281 C 631.78125 419.160156 632.558594 418.96875 633.011719 418.597656 C 633.46875 418.230469 633.710938 418.253906 635.59375 417.320312 C 637.480469 416.382812 638.453125 414.792969 638.453125 414.792969 C 638.289062 414.972656 636.609375 416.296875 636.609375 416.296875 C 636.609375 416.296875 636.609375 415.582031 636.761719 414.324219 C 636.914062 413.066406 638.699219 412.195312 638.699219 412.195312 C 638.699219 412.195312 638.785156 409.925781 639.039062 408.898438 C 639.292969 407.867188 639.105469 406.570312 639.027344 404.015625 C 638.945312 401.453125 640.652344 397.980469 641.316406 396.992188 C 641.984375 396.007812 642.597656 397.863281 643.269531 398.984375 C 643.941406 400.105469 644.636719 403.5625 645.125 404.300781 C 645.613281 405.035156 646.445312 407.671875 646.445312 407.671875 C 646.949219 408.617188 647.886719 408.078125 648.132812 407.808594 C 648.386719 407.539062 649.628906 404.015625 650.441406 401.84375 C 651.253906 399.671875 653.320312 396.5 654.648438 396.660156 C 655.984375 396.824219 657.523438 408.777344 657.566406 409.539062 C 657.613281 410.304688 658.285156 411.132812 658.25 413.386719 C 658.214844 415.636719 656.8125 418.089844 656.8125 418.089844 C 657.703125 417.03125 658.328125 415.96875 658.328125 415.96875 C 658.328125 415.96875 658.636719 418.207031 661.589844 420.964844 C 662.414062 421.730469 664.21875 423.0625 665.238281 423.507812 " fill-opacity="1" fill-rule="evenodd"/><path fill="#1a1a1a" d="M 806.730469 482.617188 C 806.730469 482.617188 806.890625 485.007812 807.601562 486.71875 C 808.3125 488.429688 809.3125 491.144531 809.375 492.5625 C 809.441406 493.980469 810.019531 496.148438 810.152344 496.730469 C 810.28125 497.308594 810.601562 498.957031 810.601562 498.957031 C 810.601562 498.957031 809.605469 496.921875 808.34375 496.792969 C 805.976562 496.546875 805.125 496.035156 802.378906 495.992188 C 802.378906 495.992188 803.5 495.953125 804.015625 494.953125 C 804.53125 493.949219 805.246094 491.886719 805.246094 491.886719 L 804.855469 494.792969 C 804.855469 494.792969 805.40625 491.335938 805.789062 491.691406 C 806.179688 492.046875 806.210938 492.820312 806.210938 492.820312 C 806.210938 492.820312 806.792969 490.496094 807.050781 489.496094 C 807.308594 488.492188 807.796875 490.429688 807.796875 490.429688 C 807.796875 490.429688 807.597656 488.300781 807.179688 487.429688 C 806.761719 486.554688 806.371094 483.972656 806.730469 482.617188 M 819.742188 447.992188 C 818.890625 446.996094 816.140625 445.53125 814.078125 445.539062 C 816.339844 445.917969 817.992188 446.625 819.742188 447.992188 Z M 818.433594 452.945312 C 817.9375 451.535156 815.851562 448.28125 813.246094 446.972656 C 815.519531 448.675781 817.039062 450.414062 818.433594 452.945312 Z M 819.96875 451.136719 C 819.226562 449.835938 816.847656 447.167969 813.792969 446.191406 C 816.335938 447.460938 818.140625 448.894531 819.96875 451.136719 Z M 816.222656 435.734375 C 816.222656 435.734375 814.21875 433.117188 813.347656 432.085938 C 812.472656 431.054688 810.894531 428.148438 810.699219 428.984375 C 810.503906 429.828125 811.023438 431.828125 811.054688 432.699219 C 811.085938 433.570312 810.832031 436.316406 811.085938 436.769531 C 811.347656 437.21875 811.796875 437.09375 811.3125 437.476562 C 810.832031 437.863281 809.277344 438.800781 809.183594 439.285156 C 809.085938 439.769531 809.152344 440.109375 809.152344 440.109375 C 809.152344 440.109375 809.417969 440.253906 809.011719 440.664062 C 808.605469 441.078125 808.277344 441.910156 808.210938 442.457031 C 808.148438 443.007812 808.019531 443.878906 808.019531 443.878906 C 808.019531 443.878906 807.339844 444.570312 807.4375 444.847656 C 807.511719 445.0625 807.351562 445.347656 807.316406 445.519531 C 805.40625 446.207031 804.402344 447.28125 804.402344 447.28125 C 805.542969 446.40625 806.597656 445.917969 807.335938 445.65625 C 807.363281 445.714844 807.371094 445.808594 807.40625 445.929688 C 804.988281 447.363281 803.957031 449.164062 803.957031 449.164062 C 805.292969 447.523438 806.644531 446.578125 807.457031 446.097656 C 807.492188 446.1875 807.535156 446.289062 807.605469 446.394531 C 805.046875 448.59375 804.242188 450.957031 804.242188 450.957031 C 805.484375 448.644531 806.917969 447.230469 807.71875 446.558594 C 807.730469 446.574219 807.742188 446.59375 807.761719 446.609375 C 808.164062 447.09375 808.34375 447.027344 808.457031 447.335938 C 808.566406 447.636719 809.535156 448.511719 809.824219 448.851562 C 810.113281 449.191406 811.441406 449.0625 811.808594 449.398438 C 812.183594 449.738281 812.8125 450.464844 813.054688 450.855469 C 813.296875 451.238281 812.101562 454.746094 812.671875 457.167969 C 813.246094 459.582031 814.265625 461.027344 814.265625 461.027344 C 814.265625 461.027344 812.457031 458.894531 812.167969 456.632812 C 811.875 454.375 812.683594 451.785156 812.261719 452.175781 C 811.839844 452.566406 809.839844 454.726562 809.417969 455.570312 C 809 456.40625 804.449219 457.539062 802.964844 458.121094 C 801.476562 458.699219 797.828125 459.761719 797.3125 460.410156 C 796.792969 461.058594 797.085938 461.570312 796.183594 462.085938 C 795.277344 462.605469 792.179688 466.640625 790.5 469.289062 C 788.820312 471.9375 785.011719 478.621094 783.589844 483.59375 C 782.167969 488.566406 782.167969 492.183594 782.429688 492.890625 C 782.683594 493.601562 772.417969 498.703125 766.671875 492.890625 C 760.921875 487.078125 756.402344 474.488281 761.3125 470.613281 C 761.3125 470.613281 763.183594 469.191406 761.828125 468.09375 C 761.230469 467.609375 759.199219 467.851562 757.71875 469.628906 C 752.859375 475.460938 756.046875 483.792969 759.128906 489.804688 C 761.558594 494.535156 765.078125 499.230469 770.578125 499.933594 C 779.683594 501.097656 785.65625 497.285156 785.65625 497.285156 C 785.65625 497.285156 785.140625 498.835938 787.660156 499.414062 C 790.179688 499.996094 793.730469 501.289062 797.476562 501.03125 C 801.222656 500.773438 806.773438 500.515625 808.128906 500.835938 C 809.488281 501.160156 810.457031 500.835938 810.390625 500.253906 C 810.328125 499.671875 811.363281 500.898438 811.8125 501.351562 C 812.265625 501.804688 815.65625 502 816.460938 501.902344 C 817.265625 501.804688 817.878906 501.320312 817.878906 501.320312 C 817.878906 501.320312 818.820312 501.902344 819.625 501.707031 C 820.433594 501.511719 820.628906 501.222656 820.628906 501.222656 C 820.628906 501.222656 821.082031 501.804688 821.371094 501.125 C 821.660156 500.449219 821.53125 499.449219 820.882812 499.058594 C 820.238281 498.675781 818.980469 498.125 817.496094 497.183594 C 816.007812 496.25 815.394531 494.214844 815.363281 493.214844 C 815.332031 492.214844 814.523438 487.792969 814.265625 486.59375 C 814.007812 485.402344 814.039062 484.304688 814.167969 483.5625 C 814.296875 482.816406 814.78125 478.71875 814.78125 478.71875 L 814.941406 483.464844 L 815.554688 481.332031 L 815.523438 482.65625 L 815.945312 481.753906 C 815.945312 481.753906 817.300781 483.816406 817.558594 485.140625 C 817.816406 486.464844 818.558594 488.273438 818.753906 489.273438 C 818.949219 490.277344 819.625 493.539062 819.527344 494.441406 C 819.433594 495.347656 819.527344 496.445312 819.753906 496.960938 C 819.980469 497.476562 821.144531 499.316406 821.855469 499.640625 C 822.5625 499.964844 823.917969 499.542969 824.46875 499.574219 C 825.019531 499.605469 826.828125 499.414062 827.214844 499.089844 C 827.601562 498.769531 828.3125 498.347656 828.019531 497.507812 C 827.730469 496.667969 827.183594 495.828125 826.601562 495.765625 C 826.019531 495.699219 824.921875 495.636719 824.730469 495.636719 C 824.535156 495.636719 824.535156 496.539062 824.535156 496.539062 C 824.535156 496.539062 824.179688 494.988281 823.824219 494.050781 C 823.46875 493.113281 823.503906 488.304688 823.503906 487.273438 C 823.503906 486.238281 823.4375 480.261719 824.085938 477.90625 C 824.730469 475.550781 826.472656 471.675781 827.3125 469.964844 C 828.152344 468.253906 829.894531 466.769531 829.636719 463.3125 C 829.375 459.859375 830.023438 459.117188 829.214844 457.113281 C 828.410156 455.113281 827.957031 453.855469 827.730469 452.398438 C 827.503906 450.949219 826.988281 447.554688 826.667969 446.683594 C 826.34375 445.8125 825.535156 444.199219 825.535156 444.199219 C 825.535156 444.199219 826.085938 443.683594 826.246094 443.375 C 826.246094 443.375 825.699219 443.730469 826.070312 442.988281 C 826.4375 442.242188 826.601562 441.5 826.601562 441.5 C 826.601562 441.5 826.085938 442.226562 826.230469 441.421875 C 826.375 440.617188 826.472656 440.195312 826.34375 439.9375 C 826.214844 439.675781 826.039062 439.386719 826.039062 439.0625 C 826.039062 438.742188 825.210938 440.371094 825.210938 440.371094 C 825.210938 440.371094 825.265625 439.628906 825.753906 438.855469 C 826.246094 438.082031 826.417969 437.742188 826.425781 437.433594 C 826.433594 437.128906 826.910156 434.730469 826.570312 433.050781 C 826.234375 431.371094 824.828125 429.5625 824.390625 429.5625 C 823.953125 429.5625 822.46875 430.128906 821.582031 431.761719 C 820.695312 433.390625 819.726562 434.890625 819.5 435.164062 C 819.277344 435.441406 818.367188 435.972656 818.273438 435.992188 C 818.175781 436.007812 816.511719 435.878906 816.222656 435.734375 Z M 816.222656 435.734375 " fill-opacity="1" fill-rule="evenodd"/><path fill="#677d61" d="M 545.671875 314.816406 C 548.597656 317.007812 549.292969 321.867188 547.140625 326.277344 C 544.777344 331.121094 539.871094 333.59375 536.191406 331.796875 C 532.507812 329.996094 531.4375 324.609375 533.800781 319.765625 C 535.839844 315.585938 539.773438 313.175781 543.179688 313.753906 C 543.769531 313.375 544.246094 312.996094 544.660156 312.464844 C 544.898438 312.144531 545.0625 311.070312 545.371094 311.195312 C 545.820312 312.5 545.9375 313.710938 545.671875 314.816406 M 523.4375 309.8125 C 519.855469 310.539062 517.144531 314.632812 517.203125 319.539062 C 517.261719 324.929688 520.632812 329.261719 524.730469 329.214844 C 528.832031 329.167969 532.105469 324.761719 532.046875 319.371094 C 531.992188 314.722656 529.472656 310.855469 526.148438 309.917969 C 525.777344 309.328125 525.503906 308.78125 525.363281 308.121094 C 525.28125 307.730469 525.59375 306.6875 525.265625 306.671875 C 524.296875 307.652344 523.675781 308.699219 523.4375 309.8125 Z M 554.664062 330.546875 C 556.578125 332.496094 556.585938 336.15625 554.554688 339.210938 C 552.296875 342.597656 548.378906 343.953125 545.804688 342.238281 C 543.230469 340.519531 542.972656 336.386719 545.226562 332.996094 C 547.238281 329.984375 550.5625 328.578125 553.085938 329.519531 C 553.359375 329.351562 553.601562 329.160156 553.828125 328.910156 C 554.03125 328.675781 554.199219 327.808594 554.445312 327.953125 C 554.714844 328.902344 554.792969 329.773438 554.664062 330.546875 Z M 508.574219 320.171875 C 506.011719 321.113281 504.433594 324.417969 504.964844 328.046875 C 505.550781 332.074219 508.507812 334.976562 511.570312 334.527344 C 514.632812 334.082031 516.640625 330.457031 516.050781 326.433594 C 515.527344 322.84375 513.125 320.152344 510.441406 319.921875 C 510.265625 319.652344 510.128906 319.371094 510.035156 319.046875 C 509.945312 318.753906 510.167969 317.898438 509.886719 317.921875 C 509.234375 318.664062 508.789062 319.414062 508.574219 320.171875 Z M 530.015625 332.480469 C 540.140625 334.757812 546.503906 344.816406 544.226562 354.941406 C 541.945312 365.066406 536.015625 353.09375 525.886719 350.8125 C 515.765625 348.535156 505.277344 356.8125 507.554688 346.683594 C 509.835938 336.5625 519.890625 330.199219 530.015625 332.480469 Z M 530.015625 332.480469 " fill-opacity="1" fill-rule="evenodd"/><path fill="#677d61" d="M 894.316406 314.816406 C 891.394531 317.007812 890.703125 321.867188 892.855469 326.277344 C 895.21875 331.121094 900.121094 333.59375 903.804688 331.796875 C 907.488281 329.996094 908.558594 324.609375 906.195312 319.765625 C 904.152344 315.585938 900.21875 313.175781 896.8125 313.753906 C 896.222656 313.375 895.746094 312.996094 895.335938 312.464844 C 895.09375 312.144531 894.929688 311.070312 894.625 311.195312 C 894.171875 312.5 894.058594 313.710938 894.316406 314.816406 M 916.554688 309.8125 C 920.136719 310.539062 922.84375 314.632812 922.789062 319.539062 C 922.730469 324.929688 919.359375 329.261719 915.257812 329.214844 C 911.160156 329.167969 907.890625 324.761719 907.949219 319.371094 C 908 314.722656 910.519531 310.855469 913.84375 309.917969 C 914.21875 309.328125 914.484375 308.78125 914.625 308.121094 C 914.707031 307.730469 914.398438 306.6875 914.730469 306.671875 C 915.695312 307.652344 916.316406 308.699219 916.554688 309.8125 Z M 885.324219 330.546875 C 883.417969 332.496094 883.402344 336.15625 885.441406 339.210938 C 887.695312 342.597656 891.613281 343.953125 894.1875 342.238281 C 896.761719 340.519531 897.023438 336.386719 894.765625 332.996094 C 892.757812 329.984375 889.429688 328.578125 886.910156 329.519531 C 886.632812 329.351562 886.390625 329.160156 886.167969 328.910156 C 885.960938 328.675781 885.789062 327.808594 885.550781 327.953125 C 885.277344 328.902344 885.199219 329.773438 885.324219 330.546875 Z M 931.421875 320.171875 C 933.980469 321.113281 935.5625 324.417969 935.03125 328.046875 C 934.445312 332.074219 931.484375 334.976562 928.421875 334.527344 C 925.359375 334.082031 923.355469 330.457031 923.945312 326.433594 C 924.464844 322.84375 926.867188 320.152344 929.550781 319.921875 C 929.726562 319.652344 929.863281 319.371094 929.960938 319.046875 C 930.046875 318.753906 929.828125 317.898438 930.109375 317.921875 C 930.757812 318.664062 931.203125 319.414062 931.421875 320.171875 Z M 909.976562 332.480469 C 899.847656 334.757812 893.488281 344.816406 895.769531 354.941406 C 898.046875 365.066406 903.976562 353.09375 914.101562 350.8125 C 924.230469 348.535156 934.71875 356.8125 932.441406 346.683594 C 930.15625 336.5625 920.101562 330.199219 909.976562 332.480469 Z M 909.976562 332.480469 " fill-opacity="1" fill-rule="evenodd"/><g fill="#1a1a1a" fill-opacity="1"><g transform="translate(631.202065, 241.914347)"><g><path d="M 34.203125 -58.6875 C 32.835938 -58.226562 31.765625 -57.539062 30.984375 -56.625 C 30.210938 -55.707031 29.757812 -54.453125 29.625 -52.859375 L 25.171875 -6.1875 L 22.96875 -5.546875 L -4.46875 -41.515625 C -5.625 -43.066406 -6.757812 -44.175781 -7.875 -44.84375 C -9 -45.507812 -10.523438 -45.5625 -12.453125 -45 L -12.8125 -46.25 C -10.0625 -47.050781 -7.867188 -47.648438 -6.234375 -48.046875 C -4.609375 -48.453125 -3.175781 -48.835938 -1.9375 -49.203125 C -1.300781 -49.390625 -0.722656 -49.570312 -0.203125 -49.75 C 0.304688 -49.925781 0.90625 -50.125 1.59375 -50.34375 C 2.28125 -50.570312 3.085938 -50.835938 4.015625 -51.140625 C 4.953125 -51.441406 6.15625 -51.8125 7.625 -52.25 L 7.984375 -51 C 7.390625 -50.769531 6.828125 -50.539062 6.296875 -50.3125 C 5.773438 -50.09375 5.328125 -49.8125 4.953125 -49.46875 C 4.578125 -49.132812 4.320312 -48.722656 4.1875 -48.234375 C 4.0625 -47.753906 4.097656 -47.171875 4.296875 -46.484375 C 4.429688 -46.023438 4.65625 -45.566406 4.96875 -45.109375 C 5.28125 -44.648438 5.5625 -44.234375 5.8125 -43.859375 L 24.359375 -19.171875 L 27.265625 -49.46875 C 27.410156 -50.664062 27.347656 -51.722656 27.078125 -52.640625 C 26.660156 -54.054688 25.894531 -54.875 24.78125 -55.09375 C 23.675781 -55.320312 22.550781 -55.265625 21.40625 -54.921875 L 21.046875 -56.171875 C 22.972656 -56.742188 24.414062 -57.128906 25.375 -57.328125 C 26.332031 -57.535156 27.226562 -57.757812 28.0625 -58 C 28.519531 -58.132812 28.9375 -58.269531 29.3125 -58.40625 C 29.695312 -58.550781 30.09375 -58.691406 30.5 -58.828125 C 30.90625 -58.972656 31.367188 -59.132812 31.890625 -59.3125 C 32.410156 -59.5 33.0625 -59.707031 33.84375 -59.9375 Z M 34.203125 -58.6875 "/></g></g></g><g fill="#1a1a1a" fill-opacity="1"><g transform="translate(678.616686, 228.254856)"><g><path d="M 20.484375 -27.703125 C 22.628906 -27.878906 24.125 -28.550781 24.96875 -29.71875 C 25.8125 -30.894531 26.148438 -32.460938 25.984375 -34.421875 L 27.25 -34.53125 C 27.34375 -33.4375 27.410156 -32.507812 27.453125 -31.75 C 27.492188 -30.988281 27.523438 -30.328125 27.546875 -29.765625 C 27.566406 -29.210938 27.578125 -28.742188 27.578125 -28.359375 C 27.585938 -27.984375 27.609375 -27.601562 27.640625 -27.21875 C 27.671875 -26.84375 27.710938 -26.476562 27.765625 -26.125 C 27.828125 -25.769531 27.890625 -25.332031 27.953125 -24.8125 C 28.023438 -24.289062 28.101562 -23.660156 28.1875 -22.921875 C 28.269531 -22.179688 28.359375 -21.265625 28.453125 -20.171875 L 27.1875 -20.0625 C 27.03125 -21.914062 26.4375 -23.351562 25.40625 -24.375 C 24.382812 -25.394531 22.800781 -25.816406 20.65625 -25.640625 L 16.515625 -25.296875 L 17.734375 -10.921875 C 17.878906 -9.203125 18.113281 -7.835938 18.4375 -6.828125 C 18.757812 -5.828125 19.285156 -5.101562 20.015625 -4.65625 C 20.742188 -4.21875 21.71875 -3.976562 22.9375 -3.9375 C 24.164062 -3.90625 25.757812 -3.972656 27.71875 -4.140625 C 29.425781 -4.285156 31 -4.519531 32.4375 -4.84375 C 33.875 -5.175781 35.125 -5.722656 36.1875 -6.484375 C 37.25 -7.253906 38.085938 -8.300781 38.703125 -9.625 C 39.316406 -10.945312 39.628906 -12.660156 39.640625 -14.765625 L 41 -14.875 L 41.390625 -3.46875 C 39.234375 -3.238281 37.273438 -3.039062 35.515625 -2.875 C 33.765625 -2.707031 31.910156 -2.539062 29.953125 -2.375 C 25.910156 -2.03125 22.523438 -1.804688 19.796875 -1.703125 C 17.066406 -1.597656 14.941406 -1.476562 13.421875 -1.34375 C 12.648438 -1.28125 11.921875 -1.207031 11.234375 -1.125 C 10.546875 -1.039062 9.8125 -0.953125 9.03125 -0.859375 C 8.25 -0.773438 7.347656 -0.675781 6.328125 -0.5625 C 5.304688 -0.457031 4.078125 -0.34375 2.640625 -0.21875 L 2.53125 -1.515625 C 3.289062 -1.578125 4.007812 -1.695312 4.6875 -1.875 C 5.375 -2.050781 5.960938 -2.328125 6.453125 -2.703125 C 6.953125 -3.078125 7.332031 -3.578125 7.59375 -4.203125 C 7.851562 -4.828125 7.941406 -5.640625 7.859375 -6.640625 L 4.84375 -42.59375 C 4.757812 -43.582031 4.535156 -44.363281 4.171875 -44.9375 C 3.804688 -45.507812 3.347656 -45.9375 2.796875 -46.21875 C 2.253906 -46.507812 1.628906 -46.6875 0.921875 -46.75 C 0.222656 -46.8125 -0.503906 -46.8125 -1.265625 -46.75 L -1.375 -48.03125 C 0.0625 -48.15625 1.273438 -48.242188 2.265625 -48.296875 C 3.265625 -48.359375 4.148438 -48.410156 4.921875 -48.453125 C 5.691406 -48.492188 6.410156 -48.53125 7.078125 -48.5625 C 7.742188 -48.59375 8.457031 -48.640625 9.21875 -48.703125 C 10.832031 -48.835938 12.910156 -49.082031 15.453125 -49.4375 C 17.992188 -49.789062 20.695312 -50.085938 23.5625 -50.328125 C 25.414062 -50.484375 27.140625 -50.601562 28.734375 -50.6875 C 30.335938 -50.78125 32.09375 -50.882812 34 -51 L 35.3125 -40.40625 L 34.046875 -40.296875 C 33.753906 -42.085938 33.257812 -43.539062 32.5625 -44.65625 C 31.863281 -45.769531 30.984375 -46.617188 29.921875 -47.203125 C 28.867188 -47.796875 27.65625 -48.15625 26.28125 -48.28125 C 24.90625 -48.40625 23.378906 -48.398438 21.703125 -48.265625 C 20.898438 -48.191406 19.960938 -48.070312 18.890625 -47.90625 C 17.828125 -47.75 16.960938 -47.59375 16.296875 -47.4375 C 15.222656 -47.207031 14.734375 -46.519531 14.828125 -45.375 L 16.34375 -27.359375 Z M 20.484375 -27.703125 "/></g></g></g><g fill="#1a1a1a" fill-opacity="1"><g transform="translate(721.783141, 224.445441)"><g><path d="M 12.46875 0.09375 C 13.238281 0.175781 13.972656 0.191406 14.671875 0.140625 C 15.378906 0.0976562 16.007812 -0.0546875 16.5625 -0.328125 C 17.125 -0.609375 17.585938 -1.023438 17.953125 -1.578125 C 18.328125 -2.140625 18.570312 -2.921875 18.6875 -3.921875 L 23.109375 -43.765625 C 20.742188 -44.117188 19.117188 -44.359375 18.234375 -44.484375 C 17.359375 -44.609375 16.800781 -44.6875 16.5625 -44.71875 C 13.757812 -44.96875 11.546875 -44.269531 9.921875 -42.625 C 8.296875 -40.976562 7.238281 -38.8125 6.75 -36.125 L 5.46875 -36.265625 L 7.15625 -47.625 C 8.257812 -47.539062 9.316406 -47.441406 10.328125 -47.328125 C 11.347656 -47.210938 12.265625 -47.113281 13.078125 -47.03125 C 14.984375 -46.820312 16.671875 -46.625 18.140625 -46.4375 C 19.609375 -46.25 20.9375 -46.078125 22.125 -45.921875 C 23.3125 -45.765625 24.378906 -45.625 25.328125 -45.5 C 26.285156 -45.375 27.210938 -45.257812 28.109375 -45.15625 C 29.015625 -45.050781 29.953125 -44.957031 30.921875 -44.875 C 31.890625 -44.789062 32.984375 -44.691406 34.203125 -44.578125 C 35.421875 -44.472656 36.773438 -44.347656 38.265625 -44.203125 C 39.765625 -44.054688 41.515625 -43.875 43.515625 -43.65625 C 44.367188 -43.5625 45.316406 -43.453125 46.359375 -43.328125 C 47.410156 -43.210938 48.484375 -43.078125 49.578125 -42.921875 L 48.8125 -31.453125 L 47.53125 -31.59375 C 47.5625 -32.789062 47.445312 -33.984375 47.1875 -35.171875 C 46.9375 -36.359375 46.492188 -37.441406 45.859375 -38.421875 C 45.222656 -39.410156 44.398438 -40.25 43.390625 -40.9375 C 42.390625 -41.625 41.175781 -42.046875 39.75 -42.203125 C 39.601562 -42.222656 39.445312 -42.238281 39.28125 -42.25 C 39.125 -42.269531 38.816406 -42.296875 38.359375 -42.328125 C 37.898438 -42.359375 37.265625 -42.390625 36.453125 -42.421875 C 35.640625 -42.460938 34.566406 -42.535156 33.234375 -42.640625 L 28.8125 -2.796875 C 28.695312 -1.796875 28.765625 -0.984375 29.015625 -0.359375 C 29.265625 0.265625 29.628906 0.773438 30.109375 1.171875 C 30.597656 1.566406 31.175781 1.859375 31.84375 2.046875 C 32.519531 2.242188 33.238281 2.382812 34 2.46875 L 33.859375 3.75 C 32.441406 3.59375 31.222656 3.441406 30.203125 3.296875 C 29.179688 3.160156 28.28125 3.023438 27.5 2.890625 C 26.726562 2.765625 25.984375 2.648438 25.265625 2.546875 C 24.554688 2.453125 23.820312 2.359375 23.0625 2.265625 C 22.25 2.179688 21.507812 2.113281 20.84375 2.0625 C 20.175781 2.007812 19.445312 1.960938 18.65625 1.921875 C 17.875 1.878906 16.976562 1.816406 15.96875 1.734375 C 14.96875 1.648438 13.753906 1.53125 12.328125 1.375 Z M 12.46875 0.09375 "/></g></g></g><g fill="#1a1a1a" fill-opacity="1"><g transform="translate(767.426156, 229.664393)"><g><path d="M 15.328125 -33.84375 L 19.15625 -44.296875 C 20.445312 -43.929688 22.003906 -43.488281 23.828125 -42.96875 C 25.648438 -42.457031 27.195312 -42.003906 28.46875 -41.609375 C 31.070312 -40.796875 33.476562 -40 35.6875 -39.21875 C 37.90625 -38.4375 40.3125 -37.640625 42.90625 -36.828125 C 44.425781 -36.359375 45.910156 -35.894531 47.359375 -35.4375 C 48.816406 -34.988281 50.285156 -34.566406 51.765625 -34.171875 L 14.203125 2.15625 C 16.691406 2.976562 18.789062 3.664062 20.5 4.21875 C 22.207031 4.78125 23.59375 5.226562 24.65625 5.5625 C 25.726562 5.894531 26.503906 6.132812 26.984375 6.28125 C 27.472656 6.425781 27.738281 6.507812 27.78125 6.53125 C 30.789062 7.46875 33.320312 7.328125 35.375 6.109375 C 37.4375 4.898438 39.125 2.820312 40.4375 -0.125 L 41.671875 0.25 L 37.46875 11.640625 C 36.21875 11.304688 34.929688 10.929688 33.609375 10.515625 C 32.285156 10.109375 30.984375 9.707031 29.703125 9.3125 C 28.148438 8.832031 26.472656 8.296875 24.671875 7.703125 C 22.878906 7.117188 21.101562 6.550781 19.34375 6 C 17.59375 5.457031 15.921875 4.925781 14.328125 4.40625 C 12.734375 3.882812 11.363281 3.445312 10.21875 3.09375 C 9.675781 2.925781 9.023438 2.722656 8.265625 2.484375 C 7.515625 2.253906 6.75 2.03125 5.96875 1.8125 C 5.1875 1.59375 4.453125 1.378906 3.765625 1.171875 C 3.085938 0.960938 2.519531 0.785156 2.0625 0.640625 L 39.734375 -35.78125 C 38.285156 -36.289062 37.078125 -36.707031 36.109375 -37.03125 C 35.140625 -37.351562 34.300781 -37.640625 33.59375 -37.890625 C 32.882812 -38.140625 32.253906 -38.347656 31.703125 -38.515625 C 31.160156 -38.679688 30.59375 -38.859375 30 -39.046875 C 28.957031 -39.367188 28.191406 -39.601562 27.703125 -39.75 C 27.222656 -39.90625 26.628906 -40.039062 25.921875 -40.15625 C 24.898438 -40.382812 23.921875 -40.363281 22.984375 -40.09375 C 22.054688 -39.832031 21.191406 -39.382812 20.390625 -38.75 C 19.585938 -38.125 18.859375 -37.347656 18.203125 -36.421875 C 17.546875 -35.503906 16.992188 -34.515625 16.546875 -33.453125 Z M 15.328125 -33.84375 "/></g></g></g><g clip-path="url(#4a99960d2f)"><path fill="#ffffff" d="M 896.480469 303.945312 L 925.082031 303.945312 C 926.003906 303.945312 926.917969 304.035156 927.820312 304.214844 C 928.726562 304.394531 929.601562 304.660156 930.453125 305.011719 C 931.304688 305.367188 932.113281 305.796875 932.878906 306.308594 C 933.648438 306.820312 934.355469 307.402344 935.007812 308.054688 C 935.660156 308.707031 936.242188 309.417969 936.753906 310.183594 C 937.265625 310.949219 937.695312 311.757812 938.050781 312.609375 C 938.402344 313.460938 938.667969 314.335938 938.847656 315.242188 C 939.027344 316.144531 939.117188 317.058594 939.117188 317.980469 L 939.117188 346.582031 C 939.117188 347.503906 939.027344 348.417969 938.847656 349.320312 C 938.667969 350.222656 938.402344 351.101562 938.050781 351.953125 C 937.695312 352.804688 937.265625 353.613281 936.753906 354.378906 C 936.242188 355.144531 935.660156 355.855469 935.007812 356.507812 C 934.355469 357.15625 933.648438 357.738281 932.878906 358.25 C 932.113281 358.761719 931.304688 359.195312 930.453125 359.546875 C 929.601562 359.902344 928.726562 360.167969 927.820312 360.347656 C 926.917969 360.527344 926.003906 360.617188 925.082031 360.617188 L 896.480469 360.617188 C 895.558594 360.617188 894.644531 360.527344 893.742188 360.347656 C 892.839844 360.167969 891.960938 359.902344 891.109375 359.546875 C 890.257812 359.195312 889.449219 358.761719 888.683594 358.25 C 887.917969 357.738281 887.207031 357.15625 886.554688 356.507812 C 885.90625 355.855469 885.324219 355.144531 884.8125 354.378906 C 884.300781 353.613281 883.867188 352.804688 883.515625 351.953125 C 883.160156 351.101562 882.894531 350.222656 882.714844 349.320312 C 882.535156 348.417969 882.445312 347.503906 882.445312 346.582031 L 882.445312 317.980469 C 882.445312 317.058594 882.535156 316.144531 882.714844 315.242188 C 882.894531 314.335938 883.160156 313.460938 883.515625 312.609375 C 883.867188 311.757812 884.300781 310.949219 884.8125 310.183594 C 885.324219 309.417969 885.90625 308.707031 886.554688 308.054688 C 887.207031 307.402344 887.917969 306.820312 888.683594 306.308594 C 889.449219 305.796875 890.257812 305.367188 891.109375 305.011719 C 891.960938 304.660156 892.839844 304.394531 893.742188 304.214844 C 894.644531 304.035156 895.558594 303.945312 896.480469 303.945312 Z M 896.480469 303.945312 " fill-opacity="1" fill-rule="nonzero"/></g><g clip-path="url(#7c97298bf1)"><path fill="#ffffff" d="M 516.410156 303.945312 L 545.011719 303.945312 C 545.933594 303.945312 546.847656 304.035156 547.75 304.214844 C 548.652344 304.394531 549.53125 304.660156 550.382812 305.011719 C 551.234375 305.367188 552.042969 305.796875 552.808594 306.308594 C 553.574219 306.820312 554.285156 307.402344 554.9375 308.054688 C 555.585938 308.707031 556.167969 309.417969 556.679688 310.183594 C 557.191406 310.949219 557.625 311.757812 557.976562 312.609375 C 558.332031 313.460938 558.597656 314.335938 558.777344 315.242188 C 558.957031 316.144531 559.046875 317.058594 559.046875 317.980469 L 559.046875 346.582031 C 559.046875 347.503906 558.957031 348.417969 558.777344 349.320312 C 558.597656 350.222656 558.332031 351.101562 557.976562 351.953125 C 557.625 352.804688 557.191406 353.613281 556.679688 354.378906 C 556.167969 355.144531 555.585938 355.855469 554.9375 356.507812 C 554.285156 357.15625 553.574219 357.738281 552.808594 358.25 C 552.042969 358.761719 551.234375 359.195312 550.382812 359.546875 C 549.53125 359.902344 548.652344 360.167969 547.75 360.347656 C 546.847656 360.527344 545.933594 360.617188 545.011719 360.617188 L 516.410156 360.617188 C 515.488281 360.617188 514.574219 360.527344 513.671875 360.347656 C 512.765625 360.167969 511.890625 359.902344 511.039062 359.546875 C 510.1875 359.195312 509.378906 358.761719 508.613281 358.25 C 507.847656 357.738281 507.136719 357.15625 506.484375 356.507812 C 505.832031 355.855469 505.25 355.144531 504.738281 354.378906 C 504.226562 353.613281 503.796875 352.804688 503.441406 351.953125 C 503.089844 351.101562 502.824219 350.222656 502.644531 349.320312 C 502.464844 348.417969 502.375 347.503906 502.375 346.582031 L 502.375 317.980469 C 502.375 317.058594 502.464844 316.144531 502.644531 315.242188 C 502.824219 314.335938 503.089844 313.460938 503.441406 312.609375 C 503.796875 311.757812 504.226562 310.949219 504.738281 310.183594 C 505.25 309.417969 505.832031 308.707031 506.484375 308.054688 C 507.136719 307.402344 507.847656 306.820312 508.613281 306.308594 C 509.378906 305.796875 510.1875 305.367188 511.039062 305.011719 C 511.890625 304.660156 512.765625 304.394531 513.671875 304.214844 C 514.574219 304.035156 515.488281 303.945312 516.410156 303.945312 Z M 516.410156 303.945312 " fill-opacity="1" fill-rule="nonzero"/></g><g fill="#1a1a1a" fill-opacity="1"><g transform="translate(524.649671, 495.651219)"><g><path d="M 4.296875 8.234375 L 3 5.75 L 14.296875 -7.375 L 15.640625 -4.796875 L 6.34375 5.65625 L 20.265625 4.0625 L 21.5625 6.578125 Z M 4.296875 8.234375 "/></g></g></g><g fill="#1a1a1a" fill-opacity="1"><g transform="translate(542.526639, 526.403698)"><g><path d="M 19.09375 2.6875 L 13.8125 -4.34375 L 10.34375 -1.734375 L 15.0625 4.546875 L 13.109375 6.015625 L 8.390625 -0.265625 L 4.84375 2.390625 L 10.28125 9.625 L 8.328125 11.09375 L 1.265625 1.6875 L 14.140625 -7.96875 L 21.046875 1.234375 Z M 19.09375 2.6875 "/></g></g></g><g fill="#1a1a1a" fill-opacity="1"><g transform="translate(564.646271, 553.18647)"><g><path d="M 18.90625 -0.703125 L 15.25 -4.25 L 5.75 5.5625 L 3.796875 3.671875 L 13.296875 -6.140625 L 9.640625 -9.671875 L 11.34375 -11.421875 L 20.609375 -2.453125 Z M 18.90625 -0.703125 "/></g></g></g><g fill="#1a1a1a" fill-opacity="1"><g transform="translate(589.247885, 574.853885)"><g/></g></g><g fill="#1a1a1a" fill-opacity="1"><g transform="translate(610.352216, 589.108859)"><g><path d="M 11.875 6.90625 L 10.828125 3.546875 C 8.835938 4.085938 7.078125 3.941406 5.546875 3.109375 C 4.285156 2.429688 3.429688 1.488281 2.984375 0.28125 C 2.546875 -0.925781 2.628906 -2.097656 3.234375 -3.234375 C 3.734375 -4.148438 4.410156 -4.757812 5.265625 -5.0625 C 6.128906 -5.363281 7.175781 -5.515625 8.40625 -5.515625 C 8.15625 -7.222656 8.289062 -8.5625 8.8125 -9.53125 C 9.320312 -10.476562 10.078125 -11.0625 11.078125 -11.28125 C 12.078125 -11.507812 13.125 -11.328125 14.21875 -10.734375 C 15.269531 -10.171875 15.976562 -9.429688 16.34375 -8.515625 C 16.71875 -7.597656 16.671875 -6.703125 16.203125 -5.828125 C 15.953125 -5.367188 15.628906 -4.988281 15.234375 -4.6875 C 14.835938 -4.394531 14.375 -4.1875 13.84375 -4.0625 C 13.3125 -3.945312 12.820312 -3.875 12.375 -3.84375 C 11.925781 -3.820312 11.359375 -3.816406 10.671875 -3.828125 C 10.941406 -2.691406 11.382812 -1.128906 12 0.859375 C 12.875 0.398438 13.753906 -0.222656 14.640625 -1.015625 L 15.546875 0.953125 C 14.523438 1.773438 13.546875 2.40625 12.609375 2.84375 L 13.703125 6.328125 Z M 10.671875 -8.546875 C 10.285156 -7.835938 10.1875 -6.8125 10.375 -5.46875 C 11.425781 -5.457031 12.273438 -5.535156 12.921875 -5.703125 C 13.578125 -5.867188 14.054688 -6.234375 14.359375 -6.796875 C 14.617188 -7.265625 14.664062 -7.71875 14.5 -8.15625 C 14.332031 -8.601562 13.988281 -8.96875 13.46875 -9.25 C 12.90625 -9.550781 12.363281 -9.632812 11.84375 -9.5 C 11.332031 -9.375 10.941406 -9.054688 10.671875 -8.546875 Z M 6.5625 1.40625 C 7.5625 1.945312 8.785156 2.015625 10.234375 1.609375 C 9.492188 -0.859375 8.988281 -2.671875 8.71875 -3.828125 C 7.863281 -3.804688 7.144531 -3.695312 6.5625 -3.5 C 5.988281 -3.300781 5.554688 -2.929688 5.265625 -2.390625 C 4.890625 -1.691406 4.828125 -0.984375 5.078125 -0.265625 C 5.328125 0.453125 5.820312 1.007812 6.5625 1.40625 Z M 6.5625 1.40625 "/></g></g></g><g fill="#1a1a1a" fill-opacity="1"><g transform="translate(641.697811, 604.101668)"><g/></g></g><g fill="#1a1a1a" fill-opacity="1"><g transform="translate(665.917059, 611.977247)"><g><path d="M 17 -10.75 L 4.9375 -1.40625 L 14.625 0.703125 L 14.109375 3.078125 L 0.828125 0.1875 L 1.25 -1.71875 L 13.34375 -11.0625 L 4.046875 -13.09375 L 4.5625 -15.46875 L 17.421875 -12.65625 Z M 17 -10.75 "/></g></g></g><g fill="#1a1a1a" fill-opacity="1"><g transform="translate(700.491938, 617.949368)"><g><path d="M 3.859375 -13.65625 C 5.566406 -15.144531 7.617188 -15.832031 10.015625 -15.71875 C 12.421875 -15.613281 14.40625 -14.742188 15.96875 -13.109375 C 17.539062 -11.484375 18.273438 -9.523438 18.171875 -7.234375 C 18.066406 -4.941406 17.160156 -3.046875 15.453125 -1.546875 C 13.753906 -0.0546875 11.703125 0.628906 9.296875 0.515625 C 6.898438 0.410156 4.914062 -0.457031 3.34375 -2.09375 C 1.769531 -3.738281 1.035156 -5.707031 1.140625 -8 C 1.242188 -10.289062 2.148438 -12.175781 3.859375 -13.65625 Z M 9.921875 -13.28125 C 8.335938 -13.351562 6.957031 -12.867188 5.78125 -11.828125 C 4.601562 -10.785156 3.976562 -9.46875 3.90625 -7.875 C 3.832031 -6.289062 4.34375 -4.914062 5.4375 -3.75 C 6.53125 -2.59375 7.863281 -1.976562 9.4375 -1.90625 C 11.007812 -1.84375 12.378906 -2.335938 13.546875 -3.390625 C 14.710938 -4.453125 15.332031 -5.773438 15.40625 -7.359375 C 15.476562 -8.953125 14.976562 -10.320312 13.90625 -11.46875 C 12.832031 -12.613281 11.503906 -13.21875 9.921875 -13.28125 Z M 9.921875 -13.28125 "/></g></g></g><g fill="#1a1a1a" fill-opacity="1"><g transform="translate(738.946737, 617.890774)"><g><path d="M 1.375 -14.125 C 2.789062 -15.894531 4.691406 -16.9375 7.078125 -17.25 C 9.460938 -17.570312 11.566406 -17.066406 13.390625 -15.734375 C 15.222656 -14.410156 16.289062 -12.609375 16.59375 -10.328125 C 16.90625 -8.054688 16.351562 -6.035156 14.9375 -4.265625 C 13.53125 -2.492188 11.632812 -1.445312 9.25 -1.125 C 6.863281 -0.8125 4.753906 -1.320312 2.921875 -2.65625 C 1.085938 -3.988281 0.0195312 -5.789062 -0.28125 -8.0625 C -0.59375 -10.34375 -0.0390625 -12.363281 1.375 -14.125 Z M 7.421875 -14.84375 C 5.835938 -14.625 4.554688 -13.894531 3.578125 -12.65625 C 2.609375 -11.425781 2.226562 -10.019531 2.4375 -8.4375 C 2.65625 -6.863281 3.398438 -5.601562 4.671875 -4.65625 C 5.953125 -3.71875 7.375 -3.351562 8.9375 -3.5625 C 10.5 -3.769531 11.757812 -4.5 12.71875 -5.75 C 13.6875 -7 14.0625 -8.410156 13.84375 -9.984375 C 13.632812 -11.566406 12.898438 -12.820312 11.640625 -13.75 C 10.390625 -14.6875 8.984375 -15.050781 7.421875 -14.84375 Z M 7.421875 -14.84375 "/></g></g></g><g fill="#1a1a1a" fill-opacity="1"><g transform="translate(776.649836, 610.940391)"><g><path d="M 8.484375 -16.90625 L 3.609375 -15.40625 L 7.640625 -2.359375 L 5.046875 -1.5625 L 1.015625 -14.609375 L -3.84375 -13.109375 L -4.5625 -15.4375 L 7.765625 -19.234375 Z M 8.484375 -16.90625 "/></g></g></g><g fill="#1a1a1a" fill-opacity="1"><g transform="translate(807.686611, 599.804408)"><g><path d="M 6.1875 -18.25 L -1.703125 -14.375 L 0.21875 -10.484375 L 7.28125 -13.953125 L 8.359375 -11.765625 L 1.296875 -8.296875 L 3.25 -4.3125 L 11.375 -8.3125 L 12.453125 -6.125 L 1.890625 -0.9375 L -5.203125 -15.375 L 5.125 -20.4375 Z M 6.1875 -18.25 "/></g></g></g><g fill="#1a1a1a" fill-opacity="1"><g transform="translate(838.185084, 583.052508)"><g><path d="M -1.875 -18.515625 C -0.957031 -19.171875 0.0664062 -19.632812 1.203125 -19.90625 C 2.347656 -20.1875 3.460938 -20.238281 4.546875 -20.0625 L 4.390625 -17.515625 C 3.554688 -17.691406 2.707031 -17.695312 1.84375 -17.53125 C 0.976562 -17.375 0.210938 -17.054688 -0.453125 -16.578125 C -1.753906 -15.648438 -2.535156 -14.414062 -2.796875 -12.875 C -3.054688 -11.332031 -2.726562 -9.921875 -1.8125 -8.640625 C -0.882812 -7.347656 0.34375 -6.578125 1.875 -6.328125 C 3.414062 -6.078125 4.835938 -6.414062 6.140625 -7.34375 C 7.503906 -8.320312 8.351562 -9.710938 8.6875 -11.515625 L 11.03125 -11 C 10.832031 -9.851562 10.421875 -8.765625 9.796875 -7.734375 C 9.179688 -6.710938 8.414062 -5.875 7.5 -5.21875 C 5.582031 -3.851562 3.515625 -3.335938 1.296875 -3.671875 C -0.921875 -4.015625 -2.703125 -5.128906 -4.046875 -7.015625 C -5.367188 -8.867188 -5.820312 -10.898438 -5.40625 -13.109375 C -4.988281 -15.328125 -3.8125 -17.128906 -1.875 -18.515625 Z M -1.875 -18.515625 "/></g></g></g><g fill="#1a1a1a" fill-opacity="1"><g transform="translate(866.350001, 560.948397)"><g><path d="M 11.28125 -11.4375 L 9.421875 -9.546875 L -4.8125 -11.53125 L 3.390625 -3.4375 L 1.484375 -1.5 L -9.96875 -12.8125 L -8.09375 -14.71875 L 6.203125 -12.734375 L -2.03125 -20.859375 L -0.171875 -22.75 Z M 11.28125 -11.4375 "/></g></g></g><g fill="#1a1a1a" fill-opacity="1"><g transform="translate(891.523056, 532.773887)"><g><path d="M 2.84375 -3.90625 L 1.234375 -1.703125 L -11.78125 -11.171875 L -10.171875 -13.375 Z M 2.84375 -3.90625 "/></g></g></g><g fill="#1a1a1a" fill-opacity="1"><g transform="translate(906.269543, 510.716631)"><g><path d="M 2.609375 -12.75 L -1.15625 -5.578125 L 1.328125 -2.515625 L 0 -0.015625 L -10.9375 -13.78125 L -9.640625 -16.234375 L 7.875 -15 L 6.53125 -12.4375 Z M -0.03125 -12.96875 L -7.75 -13.59375 L -2.84375 -7.59375 Z M -0.03125 -12.96875 "/></g></g></g></svg>